<?xml version="1.0" encoding="utf-8"?><!-- Uploaded to: SVG Repo, www.svgrepo.com, Generator: SVG Repo Mixer Tools -->
<svg width="800px" height="800px" viewBox="0 0 24 24" xmlns="http://www.w3.org/2000/svg" fill="none"><path fill="#000000" fill-rule="evenodd" d="M6 2a3 3 0 0 0-3 3v14a3 3 0 0 0 3 3h6a3 3 0 0 0 3-3V5a3 3 0 0 0-3-3H6zm10.293 5.293a1 1 0 0 1 1.414 0l4 4a1 1 0 0 1 0 1.414l-4 4a1 1 0 0 1-1.414-1.414L18.586 13H10a1 1 0 1 1 0-2h8.586l-2.293-2.293a1 1 0 0 1 0-1.414z" clip-rule="evenodd"/></svg>