<?xml version="1.0" encoding="iso-8859-1"?>
<!-- Uploaded to: SVG Repo, www.svgrepo.com, Generator: SVG Repo Mixer Tools -->
<svg height="800px" width="800px" version="1.1" id="Layer_1" xmlns="http://www.w3.org/2000/svg" xmlns:xlink="http://www.w3.org/1999/xlink" 
	 viewBox="0 0 512 512" xml:space="preserve">
<circle style="fill:#2D4452;" cx="256" cy="256" r="256"/>
<path style="fill:#243947;" d="M477.992,383.428l-64.96-160.784C397.984,183.708,360.18,156,316,156
	c-20.636,0-39.868,6.068-56.064,16.472C243.768,162.096,224.604,156,204,156c-57.344,0-104,46.656-104,104
	c0,14.564,3.024,28.428,8.452,41.028l81.776,202.404C211.224,508.996,233.26,512,256,512
	C350.968,512,433.804,460.244,477.992,383.428z"/>
<path style="fill:#1C2A33;" d="M316,156c-20.636,0-39.868,6.068-56.064,16.472C243.768,162.096,224.604,156,204,156
	c-57.344,0-104,46.656-104,104s46.656,104,104,104c20.604,0,39.768-6.092,55.936-16.472C276.132,357.936,295.36,364,316,364
	c57.344,0,104-46.656,104-104S373.344,156,316,156z"/>
<path style="fill:#FFDC80;" d="M312,152c-57.344,0-104,46.656-104,104s46.656,104,104,104s104-46.656,104-104S369.344,152,312,152z"
	/>
<path style="fill:#CC584C;" d="M304,256c0-2.704-0.204-5.352-0.408-8h-95.188c0.42-5.468,1.264-10.796,2.5-16h90.192
	c-1.312-5.5-2.968-10.876-5.116-16h-79.956c2.352-5.608,5.228-10.936,8.476-16h63c-3.688-5.744-7.916-11.1-12.624-16h-37.752
	c5.664-5.884,12.048-11.032,18.936-15.452C239.864,158.128,220.652,152,199.996,152c-57.344,0-104,46.656-104,104
	s46.656,104,104,104c20.656,0,39.868-6.124,56.064-16.548c-6.892-4.42-13.272-9.576-18.936-15.452h37.752
	c4.712-4.9,8.936-10.256,12.624-16h-63c-3.252-5.064-6.124-10.392-8.476-16h79.952c2.148-5.124,3.804-10.5,5.116-16h-90.188
	c-1.236-5.204-2.08-10.532-2.5-16h95.192C303.796,261.352,304,258.704,304,256z"/>
</svg>