<?xml version="1.0" encoding="utf-8"?>
<!-- Uploaded to: SVG Repo, www.svgrepo.com, Generator: SVG Repo Mixer Tools -->
<svg width="800px" height="800px" viewBox="0 0 24 24" fill="none" xmlns="http://www.w3.org/2000/svg">
<g id="style=fill">
<g id="notification-bell">
<path id="vector (Stroke)" fill-rule="evenodd" clip-rule="evenodd" d="M14.802 19.8317C15.4184 19.7699 15.8349 20.4242 15.5437 20.9539C15.3385 21.3271 15.0493 21.6529 14.7029 21.9197C14.3496 22.1918 13.9397 22.4006 13.5 22.5408C13.0601 22.6812 12.593 22.7522 12.1242 22.7522C11.6554 22.7522 11.1883 22.6812 10.7484 22.5408C10.3087 22.4006 9.89883 22.1918 9.54556 21.9197C9.1991 21.6529 8.90988 21.3271 8.70472 20.9539C8.41354 20.4242 8.83002 19.7699 9.44644 19.8317C9.63869 19.851 11.1433 19.9981 12.1242 19.9981C13.1051 19.9981 14.6097 19.851 14.802 19.8317Z" fill="#000000"/>
<path id="vector (Stroke)_2" fill-rule="evenodd" clip-rule="evenodd" d="M8.52901 2.08755C10.7932 1.00445 13.4465 0.967602 15.7423 1.98737L15.9475 2.07851C18.3532 3.14707 19.8934 5.4622 19.8934 8.0096L19.8934 9.27297C19.8934 10.2885 20.1236 11.2918 20.5681 12.213L20.8335 12.7632C22.0525 15.29 20.465 18.2435 17.6156 18.7498L17.455 18.7783C13.93 19.4046 10.3154 19.4046 6.79044 18.7783C3.90274 18.2653 2.37502 15.1943 3.77239 12.7115L3.99943 12.3082C4.55987 11.3124 4.85335 10.1981 4.85335 9.06596L4.85335 7.79233C4.85335 5.3744 6.27704 3.16478 8.52901 2.08755Z" fill="#000000"/>
</g>
</g>
</svg>