<?xml version="1.0" ?>
<!-- Uploaded to: SVG Repo, www.svgrepo.com, Generator: SVG Repo Mixer Tools -->
<svg width="800px" height="800px" viewBox="0 0 8.4666669 8.4666669" id="svg8" version="1.1" xmlns="http://www.w3.org/2000/svg" xmlns:cc="http://creativecommons.org/ns#" xmlns:dc="http://purl.org/dc/elements/1.1/" xmlns:inkscape="http://www.inkscape.org/namespaces/inkscape" xmlns:rdf="http://www.w3.org/1999/02/22-rdf-syntax-ns#" xmlns:sodipodi="http://sodipodi.sourceforge.net/DTD/sodipodi-0.dtd" xmlns:svg="http://www.w3.org/2000/svg">
<defs id="defs2"/>
<g id="layer1" transform="translate(0,-288.53332)">
<path d="M 5 1 A 1.0000999 1.0000999 0 0 0 4 2 L 4 30 A 1.0000999 1.0000999 0 0 0 5 31 L 27 31 A 1.0000999 1.0000999 0 0 0 28 30 L 28 10.001953 L 19.998047 10.001953 A 1.0001001 1.0001001 0 0 1 19.001953 8.9980469 L 19.001953 1 L 5 1 z M 21.001953 1.5878906 L 21.001953 8.0019531 L 27.416016 8.0019531 L 21.001953 1.5878906 z M 10.902344 12.001953 A 1.0001001 1.0001001 0 0 1 10.998047 12.001953 L 21.001953 12.001953 A 1.0009765 1.0009765 0 1 1 21.001953 14.003906 L 10.998047 14.003906 A 1.0021196 1.0021196 0 0 1 10.902344 12.001953 z M 10.957031 17.996094 A 1.0009765 1.0009765 0 0 1 10.998047 17.996094 L 21.001953 17.996094 A 1.0009765 1.0009765 0 1 1 21.001953 19.998047 L 10.998047 19.998047 A 1.0009765 1.0009765 0 0 1 10.957031 17.996094 z M 10.998047 23.998047 L 21.001953 23.998047 A 1.000252 1.000252 0 1 1 21.001953 25.998047 L 10.998047 25.998047 A 1.000252 1.000252 0 1 1 10.998047 23.998047 z " id="rect996" style="color:#000000;font-style:normal;font-variant:normal;font-weight:normal;font-stretch:normal;font-size:medium;line-height:normal;font-family:sans-serif;font-variant-ligatures:normal;font-variant-position:normal;font-variant-caps:normal;font-variant-numeric:normal;font-variant-alternates:normal;font-feature-settings:normal;text-indent:0;text-align:start;text-decoration:none;text-decoration-line:none;text-decoration-style:solid;text-decoration-color:#000000;letter-spacing:normal;word-spacing:normal;text-transform:none;writing-mode:lr-tb;direction:ltr;text-orientation:mixed;dominant-baseline:auto;baseline-shift:baseline;text-anchor:start;white-space:normal;shape-padding:0;clip-rule:nonzero;display:inline;overflow:visible;visibility:visible;opacity:1;isolation:auto;mix-blend-mode:normal;color-interpolation:sRGB;color-interpolation-filters:linearRGB;solid-color:#000000;solid-opacity:1;vector-effect:none;fill:#000000;fill-opacity:1;fill-rule:nonzero;stroke:none;stroke-width:1.99999988;stroke-linecap:round;stroke-linejoin:round;stroke-miterlimit:4;stroke-dasharray:none;stroke-dashoffset:0;stroke-opacity:1;paint-order:stroke fill markers;color-rendering:auto;image-rendering:auto;shape-rendering:auto;text-rendering:auto;enable-background:accumulate" transform="matrix(0.26458333,0,0,0.26458333,0,288.53332)"/>
</g>
</svg>